<?xml version="1.0" encoding="utf-8"?>
<!-- Generator: Adobe Illustrator 19.0.0, SVG Export Plug-In . SVG Version: 6.00 Build 0)  -->
<svg version="1.1" id="Layer_1" xmlns="http://www.w3.org/2000/svg" xmlns:xlink="http://www.w3.org/1999/xlink" x="0px" y="0px"
	 viewBox="0 0 102.7 112.2" style="enable-background:new 0 0 102.7 112.2;" xml:space="preserve">
<style type="text/css">
	.st0{fill:#E46D29;}
</style>
<g>
	<g id="XMLID_99_">
		<path id="XMLID_100_" class="st0" d="M92.5,72.2v-48c0-0.7-0.4-1.3-1-1.6L49.3,1.5c-0.5-0.2-1-0.2-1.5,0L2,22.7
			c-0.6,0.3-1,0.9-1,1.6v56.3c0,0.7,0.4,1.3,1,1.6l45.8,21.1c0.5,0.2,1,0.2,1.5,0l11.4-5.7c2.6,6.1,7.8,10.7,14.2,12.3
			c6.4,1.6,13.2,0.2,18.4-3.9c5.2-4.1,8.1-10.4,8-17.1C101.2,82.3,97.9,76.1,92.5,72.2z M66.9,14.3L29.2,34.5l-9.6-4.4L58.3,10
			L66.9,14.3z M27.4,37.6v28l-8.8-3.8V33.5L27.4,37.6z M48.5,5.1L54.4,8L16,28c-0.1,0.1-0.3,0.2-0.4,0.3l-8.7-4L48.5,5.1z M46.7,99
			L4.5,79.5V27L15,31.9V63c0,0.7,0.4,1.3,1.1,1.6l12.3,5.3c0.2,0.1,0.5,0.1,0.7,0.1c1,0,1.8-0.8,1.8-1.8V39.2l15.8,7.3V99z
			 M48.5,43.4l-15.3-7l37.5-20.2l16.1,8.1L48.5,43.4z M59.6,94.2l-9.4,4.7V46.5L89,27.1v43.1c-7.3-3.4-15.9-2.3-22.2,2.8
			C60.6,78.1,57.8,86.3,59.6,94.2z M80.2,107c-7.1,0-13.5-4.3-16.3-10.9c-2.7-6.6-1.2-14.2,3.8-19.2c5-5,12.6-6.5,19.2-3.8
			c6.6,2.7,10.9,9.1,10.9,16.3C97.8,99.1,89.9,107,80.2,107z M87.8,84.6L78.4,94l-4-4c-0.7-0.7-1.8-0.7-2.5,0
			c-0.7,0.7-0.7,1.8,0,2.5l5.3,5.3c0.3,0.3,0.8,0.5,1.2,0.5c0.5,0,0.9-0.2,1.2-0.5l10.6-10.6c0.7-0.7,0.7-1.8,0-2.5
			C89.6,83.9,88.4,83.9,87.8,84.6z"/>
	</g>
</g>
</svg>
