<svg width="179" height="179" viewBox="0 0 179 179" fill="none" xmlns="http://www.w3.org/2000/svg">
<path d="M179 89.5C179 109.25 172.467 128.446 160.419 144.096C148.371 159.746 131.485 170.971 112.392 176.023C93.2985 181.075 73.0704 179.669 54.8594 172.024C36.6485 164.38 21.4775 150.927 11.7103 133.761C1.94311 116.595 -1.87163 96.6798 0.860453 77.1193C3.59254 57.5589 12.718 39.4515 26.8149 25.6186C40.9119 11.7857 59.1885 3.00411 78.7971 0.64226C98.4057 -1.71959 118.245 2.47092 135.223 12.5608L127.533 25.5013C113.41 17.1084 96.9078 13.6227 80.5972 15.5873C64.2866 17.5519 49.084 24.8565 37.358 36.3629C25.632 47.8692 18.0414 62.9311 15.7688 79.2017C13.4962 95.4722 16.6694 112.038 24.7938 126.316C32.9182 140.595 45.5376 151.786 60.6857 158.145C75.8337 164.503 92.6596 165.673 108.542 161.471C124.424 157.269 138.47 147.931 148.491 134.913C158.513 121.896 163.947 105.928 163.947 89.5H179Z" fill="#E66C29"/>
</svg>
